<?xml version="1.0" encoding="utf-8"?>
<svg version="1.1" xmlns="http://www.w3.org/2000/svg" xmlns:xlink="http://www.w3.org/1999/xlink" x="0px" y="0px" viewBox="0 0 124 24" width="124" height="24" style="enable-background:new 0 0 124 24;" xml:space="preserve" preserveAspectRatio="xMidYMid meet">
<style type="text/css">
	.st0{fill:#003DA5;}
	.st1{fill:#FA4616;}
	.st2{fill:#FFFFFF;}
	.st3{fill:#3F4443;}
	.st4{fill:#97999B;}
</style>
<path class="st0" d="M10,0H2C0.9,0,0,0.9,0,2v20c0,1.1,0.9,2,2,2h14c1.1,0,2-0.9,2-2V8l-4-4L10,0z"/>
<path class="st1" d="M16,0h-6l4,4l4,4V2C18,0.9,17.1,0,16,0z"/>
<path id="E" class="st2" d="M8.7,7.7v2.1h5.3v4H8.7v2.4h6v4.2H3.3v-17h11.3v4.2H8.7z"/>
<path id="S" class="st3" d="M34.7,18.3c-0.4,0.7-1,1.2-1.8,1.7c-0.8,0.4-1.8,0.6-2.9,0.6c-1.1,0-2.1-0.2-3-0.6
	c-0.9-0.4-1.6-1-2.1-1.7s-0.8-1.5-0.9-2.4h2.3c0,0.5,0.2,0.9,0.5,1.4s0.7,0.8,1.2,1.1c0.5,0.3,1.1,0.4,1.9,0.4c1,0,1.7-0.3,2.2-0.8
	c0.5-0.5,0.8-1.2,0.8-2c0-0.7-0.2-1.2-0.5-1.7c-0.4-0.4-0.8-0.8-1.3-1c-0.5-0.2-1.2-0.5-2.2-0.8c-1.1-0.4-1.9-0.7-2.6-1
	c-0.6-0.3-1.2-0.8-1.7-1.4S24,8.8,24,7.8c0-0.9,0.2-1.7,0.6-2.3c0.4-0.7,1-1.2,1.8-1.6s1.7-0.6,2.8-0.6c1.7,0,3,0.4,4,1.2
	c1,0.8,1.5,1.8,1.7,3.1h-2.4c-0.1-0.7-0.5-1.3-1-1.8c-0.6-0.5-1.3-0.8-2.3-0.8c-0.9,0-1.6,0.2-2.1,0.7c-0.5,0.5-0.8,1.1-0.8,1.9
	c0,0.7,0.2,1.2,0.5,1.6c0.3,0.4,0.8,0.7,1.3,1c0.5,0.2,1.2,0.5,2.1,0.8c1.1,0.4,2,0.7,2.6,1s1.2,0.8,1.7,1.5
	c0.5,0.6,0.7,1.5,0.7,2.6C35.3,16.9,35.1,17.7,34.7,18.3z"/>
<path id="t" class="st3" d="M44.5,18.6v1.9h-1.6c-1.3,0-2.3-0.3-3-1c-0.7-0.6-1-1.7-1-3.2V9.2h-2V7.3h2V4h2.2v3.3h3.4v1.9h-3.4v7.2
	c0,0.8,0.2,1.4,0.5,1.7c0.3,0.3,0.9,0.5,1.6,0.5H44.5z"/>
<path id="a" class="st3" d="M55.8,8.1c0.9,0.6,1.5,1.5,1.9,2.6V7.3h2.2v13.2h-2.2v-3.4c-0.4,1.1-1,1.9-1.9,2.6c-0.9,0.6-2,1-3.3,1
	c-1.2,0-2.2-0.3-3.1-0.8c-0.9-0.5-1.6-1.3-2.1-2.3c-0.5-1-0.8-2.2-0.8-3.6s0.3-2.6,0.8-3.6c0.5-1,1.2-1.8,2.1-2.4
	c0.9-0.5,2-0.8,3.1-0.8C53.8,7.2,54.9,7.5,55.8,8.1z M50,10.4c-0.8,0.9-1.2,2-1.2,3.5s0.4,2.7,1.2,3.5c0.8,0.9,1.9,1.3,3.2,1.3
	c0.9,0,1.6-0.2,2.3-0.6c0.7-0.4,1.2-1,1.6-1.7c0.4-0.7,0.6-1.6,0.6-2.5s-0.2-1.8-0.6-2.5s-0.9-1.3-1.6-1.7c-0.7-0.4-1.5-0.6-2.3-0.6
	C51.8,9.1,50.8,9.5,50,10.4z M57.1,3.5L52,6.3V4.7l5.1-3V3.5z"/>
<path id="n" class="st3" d="M74,8.6c0.9,1,1.4,2.4,1.4,4.3v7.7h-2.2V13c0-1.3-0.3-2.3-1-3S70.6,9,69.5,9c-1.2,0-2.2,0.4-2.9,1.2
	c-0.7,0.8-1.1,1.9-1.1,3.4v7h-2.2V7.3h2.2v3.1c0.3-1.1,0.9-1.9,1.8-2.5c0.9-0.6,1.8-0.9,3-0.9C71.8,7.1,73,7.6,74,8.6z"/>
<path id="o" class="st3" d="M88.1,8c1,0.5,1.8,1.3,2.4,2.4c0.6,1,0.9,2.2,0.9,3.6s-0.3,2.6-0.9,3.6c-0.6,1-1.4,1.8-2.4,2.3
	c-1,0.5-2.1,0.8-3.4,0.8c-1.3,0-2.4-0.3-3.4-0.8c-1-0.5-1.8-1.3-2.4-2.3c-0.6-1-0.9-2.2-0.9-3.6s0.3-2.6,0.9-3.6
	c0.6-1,1.4-1.8,2.4-2.4s2.1-0.8,3.4-0.8C86,7.2,87.1,7.4,88.1,8z M82.6,9.6c-0.7,0.4-1.2,0.9-1.6,1.6c-0.4,0.7-0.6,1.6-0.6,2.7
	c0,1.1,0.2,1.9,0.6,2.7c0.4,0.7,0.9,1.3,1.6,1.6c0.7,0.4,1.4,0.5,2.2,0.5c0.8,0,1.5-0.2,2.2-0.5c0.7-0.4,1.2-0.9,1.6-1.6
	c0.4-0.7,0.6-1.6,0.6-2.7c0-1.1-0.2-2-0.6-2.7c-0.4-0.7-0.9-1.3-1.6-1.6c-0.7-0.4-1.4-0.5-2.2-0.5C84,9.1,83.2,9.3,82.6,9.6z"/>
<path id="k" class="st3" d="M101.4,20.5l-5-5.9v5.9h-2.2V2.7h2.2v10.3l5-5.7h2.7l-5.9,6.6l6,6.6H101.4z"/>
<path id="bodka" class="st4" d="M106.6,18.8v1.7h-1.8v-1.7H106.6z"/>
<path id="s" class="st4" d="M113.4,12.4c0.6,0.5,1,1.2,1.1,2.1h-1.4c-0.1-0.5-0.3-1-0.6-1.3s-0.9-0.5-1.5-0.5
	c-0.5,0-0.9,0.1-1.2,0.4c-0.3,0.3-0.4,0.6-0.4,1c0,0.3,0.1,0.6,0.3,0.8s0.4,0.3,0.7,0.4s0.7,0.2,1.2,0.3c0.7,0.1,1.2,0.3,1.6,0.5
	c0.4,0.2,0.7,0.4,1,0.7c0.3,0.3,0.4,0.8,0.4,1.4c0,0.7-0.3,1.3-0.8,1.7c-0.5,0.4-1.3,0.7-2.2,0.7c-1,0-1.9-0.3-2.6-0.8
	c-0.7-0.5-1.1-1.2-1.2-2.1h1.4c0.1,0.5,0.3,1,0.7,1.3c0.4,0.3,1,0.5,1.6,0.5c0.5,0,0.9-0.1,1.2-0.4c0.3-0.3,0.4-0.6,0.4-1
	c0-0.3-0.1-0.6-0.3-0.8c-0.2-0.2-0.5-0.4-0.8-0.5c-0.3-0.1-0.7-0.2-1.2-0.3c-0.7-0.1-1.2-0.3-1.6-0.4c-0.4-0.1-0.7-0.4-1-0.7
	c-0.3-0.3-0.4-0.8-0.4-1.3c0-0.7,0.3-1.3,0.8-1.8c0.5-0.5,1.3-0.7,2.2-0.7C112,11.6,112.8,11.9,113.4,12.4z"/>
<path id="k_1_" class="st4" d="M121.3,20.5l-3.4-4v4h-1.5V8.7h1.5v6.9l3.3-3.8h1.8l-3.9,4.4l4,4.4H121.3z"/>
</svg>
