<?xml version="1.0" encoding="utf-8"?>
<svg version="1.1" xmlns="http://www.w3.org/2000/svg" xmlns:xlink="http://www.w3.org/1999/xlink" x="0px" y="0px" viewBox="0 0 48 18" width="48" height="18" style="enable-background:new 0 0 48 18;" xml:space="preserve" preserveAspectRatio="xMidYMid meet">
<style type="text/css">
	.st0{fill:none;}
	.st1{fill:#FA4616;}
</style>
<rect class="st0" width="48" height="18"/>
<path id="path2987" class="st1" d="M4.7,12.8c-0.2-0.9-3.6-0.1,1.1-2.2c4.1-1.8,6.3-1,11.5-2.3c1.7-0.4,8.1,1.6,9.2-0.5
	c-0.1,0.1-1,0.2-1,0.2c-0.9,0-2.3,0.5-3.1,0.3c0.1,0,0,0,0,0.1C26.3,7,44.6,6.6,44.5,6c0,0.1-0.4,0,0.1,0c0,0,0,0.1,0,0.1
	c0-0.1-0.9,0.2-0.7,0.2c-0.6-0.1-1,0.4-1.6,0.3c0.3,0,1-0.1,1.4-0.1c-0.5,0-1.1,0.3-1.5,0.2c0.6,0.1,0.3,0,0.3,0
	c0.1,0.2,1.2-0.2,1.5-0.1c-1.3-0.3-1.3-0.1-0.1,0.3c0,0-0.2,0.1-0.1,0.1c-3.7,0.4-0.2-0.2-4.6,1c1-0.5,2.6,0.1,3.1-0.4
	c0,0-0.1,0.1,0,0.1c-0.4,0.1-0.7,0-0.1,0.1c-0.7-0.1-2.1,0.6-0.6,0.2c-0.2,0.1,0,0,0.1,0C35.4,8.7,18,11,8.4,12.2
	C6.6,12.5,6.5,12.6,4.7,12.8z M5.1,12.7C5.4,12.6,4.9,12.7,5.1,12.7z M5.7,12.6C5.8,12.6,5.3,12.7,5.7,12.6z M5.7,12.6
	C5.9,12.5,5.5,12.3,5.7,12.6z M4.1,12.7C4.1,12.7,3.7,12.6,4.1,12.7z M5.1,12.5C5,12.5,4.8,12.6,5.1,12.5z M3.9,12.6
	C3.9,12.6,3.8,12.7,3.9,12.6z M3.7,12.6C3.7,12.6,3.7,12.6,3.7,12.6z M11.9,11.7C12.7,11.6,9.8,11.9,11.9,11.7z M12.6,11.6
	C12.6,11.6,12,11.6,12.6,11.6z M4.4,12.4C4.9,12.3,3.6,11.9,4.4,12.4z M16.5,11.1C16.2,11.2,16,11.2,16.5,11.1z M16.7,11.1
	C16.7,11.1,16.7,11.1,16.7,11.1z M20.4,10.7C20.7,10.7,19.4,10.7,20.4,10.7z M4.8,12.3C4.9,12.3,4.5,12.4,4.8,12.3z M18.4,10.9
	C19.2,10.8,16.8,10.9,18.4,10.9z M18.8,10.8C18.8,10.8,18.7,10.9,18.8,10.8z M17.9,10.9C18.8,10.7,15.8,11,17.9,10.9z M19,10.8
	C19,10.8,18.8,10.8,19,10.8z M22.6,10.4C21.9,10.7,21.5,10.5,22.6,10.4z M4.8,12.2C4.8,12.2,4.8,12.3,4.8,12.2z M21.2,10.5
	C21.4,10.5,20.9,10.3,21.2,10.5z M23.2,10.3C23.5,10.3,22.1,10.4,23.2,10.3z M22.9,10.4C23,10.3,22.9,10.3,22.9,10.4z M24.9,10.1
	C25.1,10.1,23.5,10.2,24.9,10.1z M30.3,9.6C44.3,7.8,29,9.7,30.3,9.6z M4.8,12.2C4.7,12.2,4.7,12.2,4.8,12.2z M28.3,9.7
	C28.3,9.8,27.9,9.8,28.3,9.7z M26.3,10C26.1,9.9,26,10,26.3,10z M28,9.8C27.7,9.8,28,9.8,28,9.8z M4.3,12.2
	C4.2,12.2,4.2,12.2,4.3,12.2z M27.2,9.9C27.1,9.9,25.2,10.1,27.2,9.9z M24.1,10.2C24.1,10.2,24.1,10.2,24.1,10.2z M25.9,10
	C25.8,10,25,10.1,25.9,10z M16.6,10.9C16.5,10.9,16.6,10.9,16.6,10.9z M21.1,10.4C21.1,10.4,21,10.4,21.1,10.4z M23.4,10.2
	C22.9,10.3,23,10.2,23.4,10.2z M25.2,9.9C25.1,10,25.1,10,25.2,9.9z M36.9,8.7C37.3,8.6,35.5,8.8,36.9,8.7z M41.4,8.1
	C41.3,8.1,41.4,8.1,41.4,8.1z M24.1,9.7C24,9.8,23.4,9.8,24.1,9.7z M24.4,9.7C24.7,9.7,23.6,9.9,24.4,9.7z M31.6,9
	C30,9.3,31.2,9,31.6,9z M24.8,9.6C25.8,9.5,24.2,10,24.8,9.6z M33.3,8.7C33.2,8.7,33.3,8.7,33.3,8.7z M33.5,8.7
	C33.5,8.7,33.2,8.7,33.5,8.7z M3.9,11.8C3.8,11.7,3.5,11.8,3.9,11.8z M34.2,8.6C34,8.7,32.9,8.8,34.2,8.6z M37.1,8.3
	C36.6,8.5,36.3,8.4,37.1,8.3z M37.4,8.3C37.2,8.2,37.3,8.2,37.4,8.3z M25.7,9.4C25.5,9.4,25.1,9.5,25.7,9.4z M28.5,9.1
	C28.5,9.1,27.9,9.2,28.5,9.1z M22,9.8C21.8,9.9,21.2,10,22,9.8z M38.6,8.1C39.1,8,36.9,8.2,38.6,8.1z M40.3,7.9
	C40.3,7.9,39.9,7.9,40.3,7.9z M40.7,7.9C40.3,7.9,40.9,7.8,40.7,7.9z M25.9,9.4C25.9,9.4,25.6,9.4,25.9,9.4z M30.7,8.9
	C32.2,8.5,28.9,9.4,30.7,8.9z M28.1,9.2C28.1,9.1,28.1,9.2,28.1,9.2z M32.6,8.7C32.1,8.7,32.5,8.7,32.6,8.7z M29.8,9
	C29.4,8.9,29.4,8.9,29.8,9z M22.4,9.7C22.1,9.8,21.5,9.8,22.4,9.7z M28.7,9.1C28.7,9.1,28.7,9.1,28.7,9.1z M33.6,8.6
	C33.1,8.7,33.6,8.6,33.6,8.6z M28,9.1C28.8,9,26.9,9.1,28,9.1z M25.4,9.4C25.6,9.3,24.4,9.6,25.4,9.4z M3.5,11.6
	C3.2,11.7,2.8,11.7,3.5,11.6z M5.2,11.4C5,11.3,5.1,11.4,5.2,11.4z M39.9,7.8C39.9,7.8,39.6,8.1,39.9,7.8z M5.8,11.3
	C5.8,11.2,4.5,11.3,5.8,11.3z M26,9C26,9,25.6,9.2,26,9z M29,8.7C29,8.6,29,8.7,29,8.7z M26.6,8.9C26.3,9,25.9,9,26.6,8.9z
	 M40.8,7.3C40.4,7.3,40.7,7.3,40.8,7.3z M41.9,7.2C41.9,7.1,41.9,7.2,41.9,7.2z M24.7,8.8C24.7,8.8,24.5,8.8,24.7,8.8z M20.8,9.2
	C20.7,9.1,20.8,9.2,20.8,9.2z M42.9,6.8C44.4,6.4,42.2,7,42.9,6.8z M29.3,8.2C28.3,8.4,28.4,8.3,29.3,8.2z M32,8
	C30.2,7.9,31.6,7.9,32,8z M26.8,8.5C26.9,8.5,26.5,8.5,26.8,8.5z M6.7,10.6C7.7,10.5,6.9,10.5,6.7,10.6z M42.4,6.9
	C41.6,7,41.5,6.9,42.4,6.9z M24.6,8.7C24.6,8.6,23.6,8.7,24.6,8.7z M30.5,8.1C28.8,8.3,30.1,8.1,30.5,8.1z M33.2,7.8
	C33.1,7.8,33.2,7.8,33.2,7.8z M34.4,7.7C40.3,6.8,27.8,9.6,34.4,7.7z M26,8.5C26,8.5,25.5,8.6,26,8.5z M25.3,8.6
	C26.7,8.5,24.7,8.7,25.3,8.6z M26.9,8.4C28.4,8.1,24.6,8,26.9,8.4z M28.1,8.3C27.6,8.2,27.6,8.3,28.1,8.3z M38.2,7.3
	C38.3,7.2,36.6,7.3,38.2,7.3z M37.9,7.3C38,7.2,37.9,7.2,37.9,7.3z M21.7,9C21.6,9,21.7,9,21.7,9z M24.8,8.6
	C24.8,8.6,24.4,8.7,24.8,8.6z M38.4,7.2C38.3,7.2,38.4,7.3,38.4,7.2z M38.6,7.2C39.1,7.3,38.5,7.2,38.6,7.2z M39.5,7.1
	C39.8,7.1,38.3,7.2,39.5,7.1z M41.5,6.9C42.3,6.8,40.4,6.9,41.5,6.9z M36.4,7.4C36.1,7.5,36.1,7.4,36.4,7.4z M42.2,6.8
	C42,6.8,42.2,6.8,42.2,6.8z M38.4,7.2C38.4,7.2,38.2,7.2,38.4,7.2z M29.6,8.1C29.5,8.1,28.9,8.3,29.6,8.1z M31.4,7.9
	C29.8,7.9,30.7,8,31.4,7.9z M37.3,7.3C37.2,7.3,37.3,7.3,37.3,7.3z M37.6,7.3C37.6,7.2,37.6,7.3,37.6,7.3z M37.7,7.3
	C37.7,7.2,37.7,7.3,37.7,7.3z M38.2,7.2C38.2,7.2,38.1,7.3,38.2,7.2z M28.8,8.2C28.7,8.2,28.8,8.2,28.8,8.2z M38.7,7.1
	C38.7,7.2,38.4,7.2,38.7,7.1z M23,8.8C23.4,8.4,22.9,8.8,23,8.8z M24.9,8.6C24.8,8.6,24.8,8.6,24.9,8.6z M28.4,8.2
	C28.3,8.2,28.4,8.2,28.4,8.2z M40,7C40.8,6.8,38.9,7.3,40,7z M41.4,6.8C42,6.8,39.8,7.1,41.4,6.8z M23.6,8.7
	C23.7,8.6,22.9,8.7,23.6,8.7z M28.3,8.2C28.2,8.2,28.3,8.2,28.3,8.2z M41.8,6.8C41.6,6.7,41.6,6.8,41.8,6.8z M27.3,8.3
	C27.2,8.3,26.5,8.2,27.3,8.3z M21.1,8.9C21.1,8.9,20.4,9.1,21.1,8.9z M39.2,7C41.7,6.6,35.6,7.3,39.2,7z M25.2,8.4
	C25,8.4,25.1,8.4,25.2,8.4z M30.2,7.9C37.5,5.8,23.8,10.9,30.2,7.9z M35.2,7.4C37.3,7.1,31,7.7,35.2,7.4z M27.4,8.2
	C27.3,8.2,27.4,8.2,27.4,8.2z M27.3,8.1C27.3,8.1,26.8,8.2,27.3,8.1z M40.9,6.7C40.8,6.7,40.9,6.7,40.9,6.7z M41.2,6.7
	C41.3,6.7,41,6.7,41.2,6.7z M21,8.8C20.9,8.8,20.5,8.9,21,8.8z M21.3,8.7C21.6,8.5,21,8.8,21.3,8.7z M41.5,6.6
	C42.2,6.3,40.5,6.6,41.5,6.6z M21.7,8.7C21.7,8.7,21.7,8.7,21.7,8.7z M37.4,7C37.4,7,37.4,7,37.4,7z M38.4,6.9
	C38,7,36.5,7.2,38.4,6.9z M22,8.6C22,8.6,22,8.6,22,8.6z M42,6.5C42,6.5,42,6.5,42,6.5z M19.8,8.8C19.7,8.8,19.8,8.8,19.8,8.8z
	 M21.8,8.6C21.8,8.6,21.5,8.6,21.8,8.6z M25.9,8.2C25.7,8.2,25.4,8.2,25.9,8.2z M19.4,8.8C18.9,8.8,19.7,8.7,19.4,8.8z M22.2,8.5
	C22.1,8.4,22.2,8.5,22.2,8.5z M35.3,7.2C35.3,7.2,35.3,7.2,35.3,7.2z M27.6,8C27.6,7.8,27.5,7.8,27.6,8z M19.2,8.8
	C18.9,8.8,19.1,8.8,19.2,8.8z M19.6,8.8C19.6,8.7,18.5,8.8,19.6,8.8z M21,8.6C21.4,8.5,17.3,8.7,21,8.6z M18.7,8.8
	C19.2,8.4,18.5,9.1,18.7,8.8z M19.3,8.7C19.3,8.7,19.3,8.7,19.3,8.7z M11.2,9.5C11.2,9.5,11.2,9.6,11.2,9.5z M18.2,8.8
	C18.1,8.8,17.7,8.9,18.2,8.8z M18.6,8.8C18.5,8.7,18.6,8.8,18.6,8.8z M8.8,9.8C8.8,9.8,8.5,9.8,8.8,9.8z M9.9,9.6
	C9.8,9.6,9.8,9.6,9.9,9.6z M11.6,9.4C11.6,9.5,10.5,9.8,11.6,9.4z M13.1,9.3C13,9.3,13.1,9.3,13.1,9.3z M18.3,8.7
	C18.3,8.7,18,8.8,18.3,8.7z M14.3,9.2C14.3,9.2,13.1,9.3,14.3,9.2z M12.9,9.3C12.8,9.3,12.8,9.3,12.9,9.3z M13.3,9.2
	C13.3,9.2,12.7,9.3,13.3,9.2z M18.1,8.7C18.4,8.7,17.6,8.7,18.1,8.7z M16.2,8.9C17.2,8.7,15.6,9.2,16.2,8.9z M16.8,8.8
	C16.8,8.8,16.7,8.8,16.8,8.8z M17.6,8.8C17.5,8.8,17.1,8.8,17.6,8.8z M10.7,9.4C10.7,9.2,10.8,9.5,10.7,9.4z M11.2,9.4
	C11.2,9.4,11.2,9.4,11.2,9.4z M10.8,9.4C10.7,9.4,10.8,9.4,10.8,9.4z M17.5,8.7C17.5,8.7,17.5,8.8,17.5,8.7z M19,8.6
	C19.4,8.5,18.7,8.3,19,8.6z M13.9,9.1C13.9,9.1,13.9,9.1,13.9,9.1z M9.7,9.5C9.7,9.5,9.7,9.5,9.7,9.5z M19.4,8.5
	C19.3,8.4,19.4,8.4,19.4,8.5z M10.8,9.4C10.8,9.4,10.3,9.4,10.8,9.4z M11.3,9.3C11.2,9.3,10.9,9.3,11.3,9.3z M20.2,8.4
	C20.1,8.4,20.2,8.4,20.2,8.4z M10.8,9.3C10.8,9.3,10.8,9.4,10.8,9.3z M11,9.3C10.9,9.3,11,9.3,11,9.3z M19.8,8.4
	C19.8,8.4,19.6,8.5,19.8,8.4z M19.6,8.4C19.5,8.5,18.8,8.4,19.6,8.4z M20.4,8.3C20.4,8.3,20,8.3,20.4,8.3z M17,8.6
	C17.3,8.6,17,8.6,17,8.6z M15.6,8.7C16,8.7,15.4,8.8,15.6,8.7z M16.7,8.5C16.6,8.6,16.5,8.6,16.7,8.5z M16.9,8.5
	C17,8.5,16.5,8.5,16.9,8.5z M2.6,12.7C2.5,12.5,2.7,12.7,2.6,12.7z M3.6,11.4C3.6,11.4,3.6,11.4,3.6,11.4z M44.1,6.9
	C43.9,7,44.8,6.8,44.1,6.9z M44.2,6.7C43.8,6.7,44.4,6.8,44.2,6.7z M45.1,6.5C45.2,6.5,45.3,6.5,45.1,6.5z M5.5,10.6
	C5.5,10.6,5.6,10.6,5.5,10.6z M43.4,6.6C43.5,6.5,43.5,6.6,43.4,6.6z M44.7,6.3C44,6.4,44.9,6.3,44.7,6.3z M44.5,6.3
	C43.9,6.3,45.1,6.2,44.5,6.3z M45.5,6.1C44.7,6,46,6.2,45.5,6.1z M24.5,8.3C24.1,8.3,24.2,8.3,24.5,8.3z M7.3,10
	C7.2,10,7.6,10.1,7.3,10z M24.7,8.2C24.8,8.2,25.3,8.1,24.7,8.2z M45,6.1C45,6,44.8,6,45,6.1z M7.1,10C7.1,10,7.8,9.8,7.1,10z
	 M25.1,8.1C25.4,8.1,25.7,8,25.1,8.1z M39,6.6C40.8,6.7,42.8,5.9,39,6.6z M43.4,6.1C43.4,6.1,43.8,6.1,43.4,6.1z M30,7.5
	C30,7.5,33.6,7,30,7.5z M38.9,6.6C38.9,6.6,39,6.5,38.9,6.6z M32.2,7.3C31.3,7.1,32.9,7.3,32.2,7.3z M37.4,6.7
	C37.4,6.7,37.6,6.7,37.4,6.7z M37.8,6.7C37.8,6.6,37.8,6.7,37.8,6.7z M38,6.6C38.3,6.6,39.1,6.5,38,6.6z M38.7,6.6
	C38.6,6.6,39,6.5,38.7,6.6z M27.7,7.7C27.7,7.7,27.7,7.7,27.7,7.7z M36.9,6.8C36.8,6.8,37,6.8,36.9,6.8z M37,6.7
	C37.1,6.7,37.3,6.7,37,6.7z M37.2,6.7C37.2,6.7,37.2,6.7,37.2,6.7z M37.2,6.7C37.2,6.7,37.2,6.7,37.2,6.7z M43.4,6.1
	C43.4,6,43.3,6.1,43.4,6.1z M27.8,7.7C27.8,7.7,27.9,7.7,27.8,7.7z M36.7,6.8C36.8,6.8,36.8,6.8,36.7,6.8z M35.7,6.9
	C35.2,6.7,35.9,6.9,35.7,6.9z M36,6.8C36.2,6.9,36.3,6.8,36,6.8z M29.4,7.5C29.4,7.5,29.4,7.5,29.4,7.5z M35.9,6.8
	C35.9,6.8,35.9,6.8,35.9,6.8z M37.1,6.7C37.1,6.7,37.3,6.6,37.1,6.7z M7,9.8C7,9.8,7.2,9.8,7,9.8z M36.8,6.7
	C36.9,6.7,37.2,6.7,36.8,6.7z M12.2,9.2C12.2,9.2,12.4,9.3,12.2,9.2z M44.2,5.9C44.3,5.9,44.5,5.9,44.2,5.9z M11.8,9.2
	C12.3,9.4,14.4,8.9,11.8,9.2z M39.7,6.3C37.1,4.5,41.4,6.3,39.7,6.3z M39.7,6.3C39.8,6.3,39.7,6.3,39.7,6.3z M40.3,6.2
	C40.3,6.2,40.7,6.2,40.3,6.2z M22.1,8.1C22.2,8.1,22.3,8.1,22.1,8.1z M37,6.6C37,6.6,37.1,6.6,37,6.6z M37.3,6.5
	C40.2,6.9,40.6,6.1,37.3,6.5z M17.5,8.3C17.5,8.3,17.5,8.4,17.5,8.3z"/>
</svg>
